<svg width="172" height="29" viewBox="0 0 172 29" fill="none" xmlns="http://www.w3.org/2000/svg">
<g clip-path="url(#clip0_0_1)">
<path d="M19.408 22.088C19.056 21.88 18.832 21.656 18.736 21.416C18.64 21.192 18.592 21 18.592 20.84C18.592 20.392 18.752 19.784 19.072 19.016C19.408 18.248 19.848 17.376 20.392 16.4C20.952 15.408 21.568 14.384 22.24 13.328C21.648 13.28 21.144 13.248 20.728 13.232C20.312 13.216 19.952 13.208 19.648 13.208H18.808C18.984 12.744 19.288 12.424 19.72 12.248C20.168 12.056 20.696 11.96 21.304 11.96C21.576 11.96 21.856 11.976 22.144 12.008C22.432 12.04 22.728 12.08 23.032 12.128C23.848 10.896 24.68 9.704 25.528 8.552C26.392 7.384 27.192 6.352 27.928 5.456C28.68 4.544 29.304 3.856 29.8 3.392C30.264 2.944 30.648 2.72 30.952 2.72C31.128 2.72 31.32 2.792 31.528 2.936C31.752 3.064 31.984 3.248 32.224 3.488C32.064 3.616 31.856 3.96 31.6 4.52C31.36 5.064 31.096 5.752 30.808 6.584C30.536 7.416 30.264 8.328 29.992 9.32C29.72 10.312 29.464 11.328 29.224 12.368C29 13.392 28.816 14.368 28.672 15.296C28.544 16.224 28.48 17.04 28.48 17.744C28.48 18.352 28.544 18.824 28.672 19.16C28.816 19.496 29.048 19.664 29.368 19.664C29.784 19.664 30.256 19.376 30.784 18.8C31.312 18.224 31.888 17.328 32.512 16.112L32.752 16.352C32.272 17.632 31.656 18.68 30.904 19.496C30.168 20.312 29.4 20.72 28.6 20.72C27.944 20.72 27.464 20.432 27.16 19.856C26.872 19.264 26.728 18.48 26.728 17.504C26.728 16.992 26.76 16.432 26.824 15.824C26.904 15.216 27.008 14.584 27.136 13.928C26.432 13.816 25.784 13.728 25.192 13.664C24.616 13.584 24.08 13.512 23.584 13.448C22.832 14.84 22.096 16.272 21.376 17.744C20.672 19.216 20.016 20.664 19.408 22.088ZM27.304 13.088C27.544 12.032 27.824 10.968 28.144 9.896C28.464 8.808 28.8 7.776 29.152 6.8C29.52 5.824 29.864 4.968 30.184 4.232C29.688 4.536 29.112 5.08 28.456 5.864C27.816 6.632 27.136 7.576 26.416 8.696C25.696 9.8 24.96 11.016 24.208 12.344C24.752 12.456 25.288 12.584 25.816 12.728C26.36 12.856 26.856 12.976 27.304 13.088ZM34.5993 21.344C33.8313 21.344 33.1913 21.088 32.6793 20.576C32.1672 20.064 31.9112 19.296 31.9112 18.272C31.9112 17.472 32.0632 16.696 32.3673 15.944C32.6873 15.176 33.1033 14.488 33.6152 13.88C34.1273 13.272 34.6953 12.792 35.3193 12.44C35.9433 12.072 36.5593 11.888 37.1673 11.888C37.8233 11.888 38.2713 12.08 38.5113 12.464C38.7513 12.848 38.8713 13.248 38.8713 13.664C38.8713 14.128 38.7593 14.536 38.5353 14.888C38.3273 15.24 38.0393 15.416 37.6713 15.416C37.3993 15.416 37.1673 15.296 36.9753 15.056C37.2153 14.928 37.4233 14.672 37.5993 14.288C37.7753 13.888 37.8633 13.512 37.8633 13.16C37.8633 12.968 37.8233 12.824 37.7433 12.728C37.6793 12.616 37.5433 12.56 37.3353 12.56C36.9033 12.56 36.4553 12.752 35.9913 13.136C35.5433 13.52 35.1193 14.016 34.7193 14.624C34.3353 15.232 34.0153 15.872 33.7593 16.544C33.5193 17.216 33.3993 17.848 33.3993 18.44C33.3993 18.936 33.5193 19.392 33.7593 19.808C33.9993 20.224 34.4633 20.432 35.1513 20.432C35.7913 20.432 36.4313 20.256 37.0713 19.904C37.7273 19.552 38.3353 19.048 38.8953 18.392C39.4553 17.736 39.9033 16.968 40.2393 16.088L40.5513 16.328C40.1833 17.288 39.6793 18.152 39.0393 18.92C38.3993 19.672 37.6953 20.264 36.9273 20.696C36.1593 21.128 35.3833 21.344 34.5993 21.344ZM40.9171 20.912C40.6131 20.912 40.3731 20.656 40.1971 20.144C40.0211 19.632 39.9331 19.056 39.9331 18.416C39.9331 17.648 40.0611 16.736 40.3171 15.68C40.5731 14.624 40.9091 13.512 41.3251 12.344C41.7411 11.176 42.2051 10.032 42.7171 8.912C43.2451 7.792 43.7811 6.776 44.3251 5.864C44.8691 4.952 45.3811 4.224 45.8611 3.68C46.3411 3.136 46.7571 2.864 47.1091 2.864C47.3971 2.864 47.5971 3.04 47.7091 3.392C47.8371 3.728 47.9011 4.056 47.9011 4.376C47.9011 4.824 47.7971 5.368 47.5891 6.008C47.3971 6.648 47.1251 7.336 46.7731 8.072C46.4211 8.792 46.0131 9.504 45.5491 10.208C45.0851 10.912 44.5811 11.56 44.0371 12.152C43.4931 12.728 42.9411 13.184 42.3811 13.52C42.1891 13.984 42.0211 14.504 41.8771 15.08C41.7491 15.656 41.6531 16.224 41.5891 16.784C41.5251 17.328 41.4931 17.816 41.4931 18.248C41.4931 18.424 41.4931 18.576 41.4931 18.704C41.5091 18.832 41.5251 18.952 41.5411 19.064C41.7651 18.408 42.0051 17.776 42.2611 17.168C42.5331 16.544 42.8211 15.976 43.1251 15.464C43.4291 14.936 43.7491 14.48 44.0851 14.096C44.4371 13.696 44.8051 13.392 45.1891 13.184C45.5731 12.96 45.9811 12.848 46.4131 12.848C46.8611 12.848 47.2131 12.96 47.4691 13.184C47.7411 13.392 47.9331 13.664 48.0451 14C48.1731 14.32 48.2371 14.656 48.2371 15.008C48.2371 15.504 48.1491 15.984 47.9731 16.448C47.8131 16.912 47.6451 17.36 47.4691 17.792C47.2931 18.224 47.2051 18.64 47.2051 19.04C47.2051 19.36 47.2691 19.592 47.3971 19.736C47.5411 19.88 47.7171 19.952 47.9251 19.952C48.2931 19.952 48.7011 19.776 49.1491 19.424C49.6131 19.072 50.0691 18.608 50.5171 18.032C50.9651 17.44 51.3491 16.8 51.6691 16.112L51.9811 16.4C51.6451 17.184 51.2371 17.896 50.7571 18.536C50.2771 19.16 49.7491 19.656 49.1731 20.024C48.5971 20.392 47.9971 20.576 47.3731 20.576C46.8291 20.576 46.4131 20.432 46.1251 20.144C45.8531 19.856 45.7171 19.496 45.7171 19.064C45.7171 18.728 45.7811 18.352 45.9091 17.936C46.0371 17.52 46.1571 17.096 46.2691 16.664C46.3971 16.232 46.4611 15.824 46.4611 15.44C46.4611 15.024 46.3731 14.728 46.1971 14.552C46.0211 14.376 45.8051 14.288 45.5491 14.288C45.1491 14.288 44.7891 14.448 44.4691 14.768C44.1491 15.088 43.8531 15.504 43.5811 16.016C43.3251 16.512 43.0771 17.04 42.8371 17.6C42.6131 18.16 42.3971 18.696 42.1891 19.208C41.9811 19.704 41.7731 20.112 41.5651 20.432C41.3571 20.752 41.1411 20.912 40.9171 20.912ZM42.6931 12.584C43.1411 12.232 43.5731 11.784 43.9891 11.24C44.4211 10.696 44.8211 10.12 45.1891 9.512C45.5571 8.888 45.8851 8.28 46.1731 7.688C46.4611 7.096 46.6851 6.56 46.8451 6.08C47.0051 5.6 47.0851 5.24 47.0851 5C47.0851 4.92 47.0771 4.872 47.0611 4.856C47.0451 4.824 47.0211 4.808 46.9891 4.808C46.8771 4.808 46.6451 5.032 46.2931 5.48C45.9571 5.912 45.5651 6.496 45.1171 7.232C44.6691 7.968 44.2291 8.8 43.7971 9.728C43.3651 10.656 42.9971 11.608 42.6931 12.584ZM63.2991 20.744C62.7391 20.744 62.3311 20.568 62.0751 20.216C61.8191 19.88 61.6911 19.472 61.6911 18.992C61.6911 18.592 61.7471 18.192 61.8591 17.792C61.9871 17.392 62.1071 17 62.2191 16.616C62.3471 16.232 62.4111 15.888 62.4111 15.584C62.4111 15.264 62.3391 15.04 62.1951 14.912C62.0511 14.784 61.8911 14.72 61.7151 14.72C61.3151 14.72 60.8751 15.032 60.3951 15.656C59.9311 16.28 59.3231 17.16 58.5711 18.296C58.3151 18.68 58.0991 19.072 57.9231 19.472C57.7471 19.856 57.5791 20.208 57.4191 20.528C57.2911 20.528 57.1311 20.512 56.9391 20.48C56.7471 20.448 56.5711 20.392 56.4111 20.312C56.2671 20.248 56.1951 20.16 56.1951 20.048C56.1951 19.936 56.2671 19.672 56.4111 19.256C56.5711 18.824 56.7471 18.328 56.9391 17.768C57.1471 17.192 57.3231 16.616 57.4671 16.04C57.6271 15.448 57.7071 14.944 57.7071 14.528C57.7071 14.256 57.6591 14.04 57.5631 13.88C57.4831 13.704 57.3311 13.616 57.1071 13.616C56.7551 13.616 56.3311 13.832 55.8351 14.264C55.3391 14.68 54.8271 15.232 54.2991 15.92C53.7711 16.608 53.2671 17.368 52.7871 18.2C52.3231 19.016 51.9471 19.832 51.6591 20.648C51.5151 20.648 51.3391 20.624 51.1311 20.576C50.9231 20.528 50.7471 20.464 50.6031 20.384C50.4431 20.304 50.3631 20.224 50.3631 20.144C50.3631 20.048 50.4511 19.768 50.6271 19.304C50.7871 18.824 50.9791 18.256 51.2031 17.6C51.4111 16.928 51.5951 16.248 51.7551 15.56C51.9311 14.872 52.0191 14.264 52.0191 13.736C52.1151 13.624 52.2671 13.512 52.4751 13.4C52.6831 13.288 52.8991 13.232 53.1231 13.232C53.3471 13.232 53.5071 13.288 53.6031 13.4C53.7151 13.512 53.7711 13.664 53.7711 13.856C53.7711 14.064 53.7071 14.424 53.5791 14.936C53.4671 15.432 53.3231 15.984 53.1471 16.592C53.4671 16.08 53.8271 15.56 54.2271 15.032C54.6431 14.488 55.0751 13.992 55.5231 13.544C55.9711 13.096 56.4191 12.736 56.8671 12.464C57.3311 12.176 57.7791 12.032 58.2111 12.032C58.7071 12.032 59.0431 12.216 59.2191 12.584C59.4111 12.936 59.5071 13.36 59.5071 13.856C59.5071 14.256 59.4591 14.68 59.3631 15.128C59.2831 15.56 59.1871 15.968 59.0751 16.352C58.9631 16.72 58.8591 17.016 58.7631 17.24C59.0991 16.632 59.4671 16.048 59.8671 15.488C60.2831 14.912 60.7311 14.448 61.2111 14.096C61.6911 13.728 62.2031 13.544 62.7471 13.544C63.2591 13.544 63.6111 13.696 63.8031 14C64.0111 14.304 64.1151 14.664 64.1151 15.08C64.1151 15.496 64.0431 15.952 63.8991 16.448C63.7551 16.944 63.6031 17.424 63.4431 17.888C63.2991 18.352 63.2271 18.752 63.2271 19.088C63.2271 19.296 63.2751 19.488 63.3711 19.664C63.4831 19.824 63.6751 19.904 63.9471 19.904C64.3951 19.904 64.8111 19.704 65.1951 19.304C65.5951 18.888 65.9631 18.392 66.2991 17.816C66.6351 17.224 66.9231 16.656 67.1631 16.112L67.4511 16.448C67.1951 17.12 66.8671 17.792 66.4671 18.464C66.0671 19.12 65.5951 19.664 65.0511 20.096C64.5231 20.528 63.9391 20.744 63.2991 20.744ZM67.8708 21.128C67.3748 21.128 66.9588 20.96 66.6227 20.624C66.2707 20.304 66.0947 19.808 66.0947 19.136C66.0947 18.56 66.2227 17.944 66.4787 17.288C66.7347 16.616 67.0868 15.96 67.5348 15.32C67.9828 14.664 68.4868 14.072 69.0468 13.544C69.6228 13 70.2228 12.568 70.8468 12.248C71.4868 11.928 72.1188 11.768 72.7428 11.768C73.3668 11.768 73.8868 11.936 74.3028 12.272C74.7188 12.592 74.9268 13.024 74.9268 13.568C74.9268 13.968 74.8148 14.24 74.5908 14.384C74.3828 14.528 74.1028 14.6 73.7508 14.6C73.7828 14.472 73.8068 14.336 73.8228 14.192C73.8548 14.032 73.8708 13.888 73.8708 13.76C73.8708 13.392 73.7828 13.08 73.6068 12.824C73.4308 12.552 73.1268 12.416 72.6948 12.416C72.2468 12.416 71.7908 12.576 71.3268 12.896C70.8628 13.2 70.4148 13.616 69.9828 14.144C69.5508 14.656 69.1668 15.216 68.8308 15.824C68.4948 16.432 68.2308 17.032 68.0388 17.624C67.8468 18.216 67.7508 18.744 67.7508 19.208C67.7508 19.832 67.9668 20.144 68.3988 20.144C68.7668 20.144 69.1668 19.976 69.5988 19.64C70.0308 19.288 70.4708 18.848 70.9188 18.32C71.3828 17.776 71.8228 17.216 72.2388 16.64C72.6548 16.064 73.0228 15.536 73.3428 15.056C73.4068 14.96 73.4468 14.912 73.4628 14.912C73.5588 14.928 73.6788 14.96 73.8228 15.008C73.9828 15.056 74.1188 15.12 74.2308 15.2C74.3428 15.28 74.3988 15.384 74.3988 15.512C74.3988 15.656 74.3268 15.856 74.1828 16.112C74.0388 16.352 73.8788 16.632 73.7028 16.952C73.5268 17.272 73.3668 17.6 73.2228 17.936C73.0788 18.256 73.0068 18.56 73.0068 18.848C73.0068 19.088 73.0708 19.328 73.1988 19.568C73.3268 19.792 73.5348 19.904 73.8228 19.904C74.2548 19.904 74.8228 19.592 75.5268 18.968C76.2308 18.328 76.9428 17.376 77.6628 16.112L77.9028 16.352C77.5668 17.216 77.1348 17.976 76.6068 18.632C76.0788 19.288 75.5108 19.8 74.9028 20.168C74.3108 20.536 73.7268 20.72 73.1508 20.72C72.5588 20.72 72.1188 20.544 71.8308 20.192C71.5588 19.84 71.4228 19.456 71.4228 19.04C71.4228 18.944 71.4308 18.84 71.4468 18.728C71.4628 18.6 71.4788 18.472 71.4948 18.344C70.8068 19.272 70.1748 19.968 69.5988 20.432C69.0388 20.896 68.4628 21.128 67.8708 21.128ZM78.5879 20.72C78.3159 20.72 78.0359 20.648 77.7479 20.504C77.4759 20.376 77.2519 20.16 77.0759 19.856C76.8839 19.552 76.7879 19.168 76.7879 18.704C76.7879 18.176 76.9159 17.584 77.1719 16.928C77.4279 16.272 77.7719 15.624 78.2039 14.984C78.6359 14.328 79.1319 13.728 79.6919 13.184C80.2519 12.624 80.8359 12.184 81.4439 11.864C82.0519 11.528 82.6519 11.36 83.2439 11.36C83.5799 11.36 83.8359 11.424 84.0119 11.552C84.2039 11.664 84.2999 11.848 84.2999 12.104C84.2999 12.168 84.2919 12.224 84.2759 12.272C84.2759 12.32 84.2679 12.376 84.2519 12.44C84.1719 12.312 84.0519 12.224 83.8919 12.176C83.7479 12.112 83.5639 12.08 83.3399 12.08C82.8279 12.08 82.3239 12.24 81.8279 12.56C81.3479 12.864 80.8999 13.272 80.4839 13.784C80.0839 14.28 79.7319 14.816 79.4279 15.392C79.1239 15.968 78.8839 16.528 78.7079 17.072C78.5479 17.6 78.4679 18.048 78.4679 18.416C78.4679 18.768 78.5479 19.048 78.7079 19.256C78.8679 19.464 79.0759 19.568 79.3319 19.568C79.7639 19.568 80.2839 19.296 80.8919 18.752C81.5159 18.208 82.1479 17.44 82.7879 16.448C83.4279 15.456 84.0039 14.296 84.5159 12.968C84.8679 12.04 85.2279 11.096 85.5959 10.136C85.9799 9.176 86.3639 8.256 86.7479 7.376C87.1319 6.48 87.4999 5.688 87.8519 5C88.2199 4.296 88.5639 3.744 88.8839 3.344C89.2199 2.928 89.5159 2.72 89.7719 2.72C89.8999 2.72 90.0119 2.776 90.1079 2.888C90.2039 2.984 90.2519 3.112 90.2519 3.272C90.2519 3.528 90.1159 3.968 89.8439 4.592C89.5879 5.2 89.2439 5.936 88.8119 6.8C88.3959 7.648 87.9559 8.576 87.4919 9.584C87.0279 10.592 86.5799 11.616 86.1479 12.656C85.7319 13.696 85.3879 14.704 85.1159 15.68C84.8599 16.64 84.7319 17.52 84.7319 18.32C84.7319 18.768 84.7559 19.104 84.8039 19.328C84.8519 19.552 85.0119 19.664 85.2839 19.664C85.6199 19.664 86.0119 19.52 86.4599 19.232C86.9079 18.944 87.3559 18.536 87.8039 18.008C88.2519 17.48 88.6439 16.848 88.9799 16.112L89.2679 16.328C88.9639 17.144 88.5479 17.88 88.0199 18.536C87.4919 19.176 86.9239 19.68 86.3159 20.048C85.7239 20.432 85.1559 20.624 84.6119 20.624C84.0199 20.624 83.6039 20.424 83.3639 20.024C83.1399 19.64 83.0279 19.24 83.0279 18.824C83.0279 18.552 83.0679 18.192 83.1479 17.744C83.2279 17.296 83.3399 16.8 83.4839 16.256C82.9719 17.104 82.4279 17.872 81.8519 18.56C81.2759 19.232 80.7079 19.76 80.1479 20.144C79.6039 20.528 79.0839 20.72 78.5879 20.72ZM99.622 22.088C98.758 22.088 97.942 21.928 97.174 21.608C96.406 21.304 95.782 20.832 95.302 20.192C94.838 19.552 94.606 18.752 94.606 17.792C94.606 16.96 94.766 16.312 95.086 15.848C95.422 15.384 95.83 15.056 96.31 14.864C96.79 14.672 97.246 14.576 97.678 14.576C97.246 15.04 96.918 15.552 96.694 16.112C96.47 16.672 96.358 17.232 96.358 17.792C96.358 18.384 96.486 18.936 96.742 19.448C97.014 19.96 97.422 20.368 97.966 20.672C98.51 20.992 99.198 21.152 100.03 21.152C100.75 21.152 101.454 21.016 102.142 20.744C102.83 20.488 103.39 20.104 103.822 19.592C104.27 19.064 104.494 18.416 104.494 17.648C104.494 16.96 104.318 16.368 103.966 15.872C103.614 15.376 103.158 14.936 102.598 14.552C102.054 14.168 101.47 13.8 100.846 13.448C100.222 13.096 99.63 12.728 99.07 12.344C98.526 11.944 98.078 11.488 97.726 10.976C97.374 10.464 97.198 9.848 97.198 9.128C97.198 8.456 97.358 7.752 97.678 7.016C97.998 6.28 98.454 5.584 99.046 4.928C99.654 4.272 100.374 3.744 101.206 3.344C102.054 2.928 102.998 2.72 104.038 2.72C104.982 2.72 105.638 2.952 106.006 3.416C106.374 3.864 106.558 4.432 106.558 5.12C106.558 5.696 106.454 6.32 106.246 6.992C106.054 7.648 105.814 8.28 105.526 8.888C105.238 9.48 104.966 9.984 104.71 10.4C104.422 10.336 104.214 10.216 104.086 10.04C103.974 9.848 103.918 9.624 103.918 9.368C103.918 9.032 103.99 8.648 104.134 8.216C104.278 7.784 104.438 7.336 104.614 6.872C104.806 6.408 104.974 5.96 105.118 5.528C105.262 5.08 105.334 4.68 105.334 4.328C105.334 4.008 105.238 3.76 105.046 3.584C104.854 3.392 104.502 3.296 103.99 3.296C103.238 3.296 102.542 3.472 101.902 3.824C101.262 4.176 100.702 4.632 100.222 5.192C99.742 5.736 99.366 6.312 99.094 6.92C98.838 7.528 98.71 8.08 98.71 8.576C98.71 9.168 98.878 9.68 99.214 10.112C99.566 10.528 100.014 10.912 100.558 11.264C101.102 11.6 101.678 11.944 102.286 12.296C102.91 12.632 103.494 13.008 104.038 13.424C104.582 13.84 105.022 14.336 105.358 14.912C105.71 15.472 105.886 16.16 105.886 16.976C105.886 17.808 105.702 18.544 105.334 19.184C104.966 19.808 104.47 20.336 103.846 20.768C103.238 21.2 102.566 21.528 101.83 21.752C101.094 21.976 100.358 22.088 99.622 22.088ZM109.417 20.72C108.873 20.72 108.433 20.48 108.097 20C107.777 19.504 107.617 18.936 107.617 18.296C107.617 17.832 107.689 17.296 107.833 16.688C107.993 16.08 108.185 15.48 108.409 14.888C108.633 14.296 108.865 13.808 109.105 13.424C109.345 13.04 109.553 12.848 109.729 12.848C109.809 12.848 109.945 12.896 110.137 12.992C110.329 13.072 110.489 13.184 110.617 13.328C110.441 13.6 110.225 14.016 109.969 14.576C109.713 15.136 109.489 15.736 109.297 16.376C109.105 17.016 109.009 17.608 109.009 18.152C109.009 18.28 109.025 18.48 109.057 18.752C109.089 19.008 109.169 19.24 109.297 19.448C109.425 19.656 109.617 19.76 109.873 19.76C110.177 19.76 110.489 19.608 110.809 19.304C111.129 18.984 111.449 18.576 111.769 18.08C112.105 17.584 112.425 17.048 112.729 16.472C113.033 15.896 113.313 15.344 113.569 14.816C113.841 14.288 114.065 13.848 114.241 13.496C114.337 13.512 114.473 13.544 114.649 13.592C114.841 13.64 115.009 13.704 115.153 13.784C115.313 13.864 115.393 13.976 115.393 14.12C115.393 14.184 115.313 14.4 115.153 14.768C114.993 15.12 114.801 15.56 114.577 16.088C114.369 16.6 114.185 17.12 114.025 17.648C113.865 18.176 113.785 18.64 113.785 19.04C113.785 19.328 113.841 19.56 113.953 19.736C114.081 19.912 114.289 20 114.577 20C114.913 20 115.321 19.848 115.801 19.544C116.281 19.24 116.769 18.8 117.265 18.224C117.761 17.632 118.201 16.928 118.585 16.112L118.897 16.328C118.561 17.192 118.121 17.96 117.577 18.632C117.033 19.288 116.457 19.8 115.849 20.168C115.241 20.536 114.649 20.72 114.073 20.72C113.657 20.72 113.321 20.64 113.065 20.48C112.825 20.32 112.649 20.104 112.537 19.832C112.441 19.56 112.393 19.264 112.393 18.944C112.393 18.752 112.409 18.56 112.441 18.368C112.473 18.16 112.513 17.952 112.561 17.744C112.273 18.272 111.961 18.768 111.625 19.232C111.289 19.68 110.937 20.04 110.569 20.312C110.201 20.584 109.817 20.72 109.417 20.72ZM122.293 20.624C121.749 20.624 121.317 20.48 120.997 20.192C120.693 19.904 120.541 19.528 120.541 19.064C120.541 18.584 120.653 18.08 120.877 17.552C121.101 17.024 121.317 16.504 121.525 15.992C121.749 15.464 121.861 14.992 121.861 14.576C121.861 14.064 121.709 13.688 121.405 13.448C121.117 13.192 120.821 12.96 120.517 12.752C120.149 13.696 119.765 14.592 119.365 15.44C118.965 16.288 118.637 16.928 118.381 17.36L118.165 16.952C118.389 16.536 118.677 15.928 119.029 15.128C119.397 14.328 119.757 13.416 120.109 12.392C119.949 12.232 119.869 12.04 119.869 11.816C119.869 11.336 120.005 10.944 120.277 10.64C120.549 10.336 120.749 10.184 120.877 10.184C121.053 10.184 121.149 10.264 121.165 10.424C121.197 10.568 121.213 10.68 121.213 10.76C121.213 10.84 121.165 11 121.069 11.24C120.989 11.464 120.949 11.6 120.949 11.648C120.949 11.872 121.069 12.08 121.309 12.272C121.565 12.448 121.853 12.656 122.173 12.896C122.493 13.12 122.773 13.4 123.013 13.736C123.269 14.056 123.397 14.472 123.397 14.984C123.397 15.464 123.293 15.952 123.085 16.448C122.893 16.944 122.693 17.416 122.485 17.864C122.293 18.312 122.197 18.704 122.197 19.04C122.197 19.328 122.269 19.52 122.413 19.616C122.557 19.712 122.725 19.76 122.917 19.76C123.301 19.76 123.693 19.64 124.093 19.4C124.509 19.16 124.909 18.856 125.293 18.488C125.677 18.12 126.021 17.736 126.325 17.336C126.629 16.92 126.853 16.536 126.997 16.184L127.309 16.424C127.005 17.096 126.589 17.76 126.061 18.416C125.533 19.056 124.941 19.584 124.285 20C123.645 20.416 122.981 20.624 122.293 20.624ZM128.284 20.72C127.74 20.72 127.3 20.48 126.964 20C126.644 19.504 126.484 18.936 126.484 18.296C126.484 17.832 126.556 17.296 126.7 16.688C126.86 16.08 127.052 15.48 127.276 14.888C127.5 14.296 127.732 13.808 127.972 13.424C128.212 13.04 128.42 12.848 128.596 12.848C128.676 12.848 128.812 12.896 129.004 12.992C129.196 13.072 129.356 13.184 129.484 13.328C129.308 13.6 129.092 14.016 128.836 14.576C128.58 15.136 128.356 15.736 128.164 16.376C127.972 17.016 127.876 17.608 127.876 18.152C127.876 18.28 127.892 18.48 127.924 18.752C127.956 19.008 128.036 19.24 128.164 19.448C128.292 19.656 128.484 19.76 128.74 19.76C129.044 19.76 129.356 19.608 129.676 19.304C129.996 18.984 130.316 18.576 130.636 18.08C130.972 17.584 131.292 17.048 131.596 16.472C131.9 15.896 132.18 15.344 132.436 14.816C132.708 14.288 132.932 13.848 133.108 13.496C133.204 13.512 133.34 13.544 133.516 13.592C133.708 13.64 133.876 13.704 134.02 13.784C134.18 13.864 134.26 13.976 134.26 14.12C134.26 14.184 134.18 14.4 134.02 14.768C133.86 15.12 133.668 15.56 133.444 16.088C133.236 16.6 133.052 17.12 132.892 17.648C132.732 18.176 132.652 18.64 132.652 19.04C132.652 19.328 132.708 19.56 132.82 19.736C132.948 19.912 133.156 20 133.444 20C133.78 20 134.188 19.848 134.668 19.544C135.148 19.24 135.636 18.8 136.132 18.224C136.628 17.632 137.068 16.928 137.452 16.112L137.764 16.328C137.428 17.192 136.988 17.96 136.444 18.632C135.9 19.288 135.324 19.8 134.716 20.168C134.108 20.536 133.516 20.72 132.94 20.72C132.524 20.72 132.188 20.64 131.932 20.48C131.692 20.32 131.516 20.104 131.404 19.832C131.308 19.56 131.26 19.264 131.26 18.944C131.26 18.752 131.276 18.56 131.308 18.368C131.34 18.16 131.38 17.952 131.428 17.744C131.14 18.272 130.828 18.768 130.492 19.232C130.156 19.68 129.804 20.04 129.436 20.312C129.068 20.584 128.684 20.72 128.284 20.72ZM141.16 20.624C140.616 20.624 140.184 20.48 139.864 20.192C139.56 19.904 139.408 19.528 139.408 19.064C139.408 18.584 139.52 18.08 139.744 17.552C139.968 17.024 140.184 16.504 140.392 15.992C140.616 15.464 140.728 14.992 140.728 14.576C140.728 14.064 140.576 13.688 140.272 13.448C139.984 13.192 139.688 12.96 139.384 12.752C139.016 13.696 138.632 14.592 138.232 15.44C137.832 16.288 137.504 16.928 137.248 17.36L137.032 16.952C137.256 16.536 137.544 15.928 137.896 15.128C138.264 14.328 138.624 13.416 138.976 12.392C138.816 12.232 138.736 12.04 138.736 11.816C138.736 11.336 138.872 10.944 139.144 10.64C139.416 10.336 139.616 10.184 139.744 10.184C139.92 10.184 140.016 10.264 140.032 10.424C140.064 10.568 140.08 10.68 140.08 10.76C140.08 10.84 140.032 11 139.936 11.24C139.856 11.464 139.816 11.6 139.816 11.648C139.816 11.872 139.936 12.08 140.176 12.272C140.432 12.448 140.72 12.656 141.04 12.896C141.36 13.12 141.64 13.4 141.88 13.736C142.136 14.056 142.264 14.472 142.264 14.984C142.264 15.464 142.16 15.952 141.952 16.448C141.76 16.944 141.56 17.416 141.352 17.864C141.16 18.312 141.064 18.704 141.064 19.04C141.064 19.328 141.136 19.52 141.28 19.616C141.424 19.712 141.592 19.76 141.784 19.76C142.168 19.76 142.56 19.64 142.96 19.4C143.376 19.16 143.776 18.856 144.16 18.488C144.544 18.12 144.888 17.736 145.192 17.336C145.496 16.92 145.72 16.536 145.864 16.184L146.176 16.424C145.872 17.096 145.456 17.76 144.928 18.416C144.4 19.056 143.808 19.584 143.152 20C142.512 20.416 141.848 20.624 141.16 20.624Z" fill="white"/>
</g>
<defs>
<clipPath id="clip0_0_1">
<rect width="172" height="29" fill="white"/>
</clipPath>
</defs>
</svg>
