<svg width="172" height="29" viewBox="0 0 172 29" fill="none" xmlns="http://www.w3.org/2000/svg">
<g clip-path="url(#clip0_0_1)">
<path d="M22.504 25.824C21.736 25.6 21.2 25.376 20.896 25.152C20.608 24.928 20.464 24.648 20.464 24.312C20.464 24.056 20.536 23.696 20.68 23.232C20.824 22.768 21.032 22.224 21.304 21.6C21.592 20.96 21.928 20.256 22.312 19.488C22.712 18.72 23.16 17.896 23.656 17.016C23.24 17 22.864 16.992 22.528 16.992C22.208 16.976 21.944 16.968 21.736 16.968C21.832 16.728 22.104 16.52 22.552 16.344C23 16.168 23.592 16.016 24.328 15.888C24.952 14.848 25.616 13.856 26.32 12.912C27.04 11.968 27.76 11.104 28.48 10.32C29.2 9.52 29.92 8.824 30.64 8.232C31.36 7.624 32.048 7.144 32.704 6.792C32.72 6.68 32.728 6.584 32.728 6.504C32.744 6.424 32.752 6.368 32.752 6.336C32.976 6.336 33.272 6.392 33.64 6.504C34.024 6.616 34.392 6.752 34.744 6.912C35.112 7.072 35.432 7.24 35.704 7.416C35.992 7.576 36.152 7.712 36.184 7.824C35.656 8.752 35.136 10.144 34.624 12C34.112 13.84 33.688 16.048 33.352 18.624C33.272 19.264 33.2 19.992 33.136 20.808C33.088 21.624 33.064 22.536 33.064 23.544C33.064 23.896 33.064 24.256 33.064 24.624C33.064 24.992 33.08 25.376 33.112 25.776C33.08 25.792 33.048 25.8 33.016 25.8C32.984 25.8 32.92 25.8 32.824 25.8C32.6 25.8 32.336 25.76 32.032 25.68C31.744 25.616 31.456 25.528 31.168 25.416C30.896 25.32 30.656 25.208 30.448 25.08C30.256 24.952 30.136 24.84 30.088 24.744C30.072 24.536 30.064 24.328 30.064 24.12C30.064 23.928 30.064 23.72 30.064 23.496C30.064 22.504 30.096 21.496 30.16 20.472C30.24 19.448 30.368 18.392 30.544 17.304C30.32 17.288 30.024 17.272 29.656 17.256C29.288 17.224 28.872 17.2 28.408 17.184C27.96 17.168 27.472 17.152 26.944 17.136C26.432 17.104 25.928 17.08 25.432 17.064C25.048 17.784 24.688 18.504 24.352 19.224C24.016 19.928 23.728 20.64 23.488 21.36C23.216 22.128 22.992 22.896 22.816 23.664C22.656 24.432 22.552 25.152 22.504 25.824ZM31.768 11.4C31.832 11.176 31.904 10.872 31.984 10.488C32.08 10.088 32.168 9.672 32.248 9.24C31.848 9.384 31.4 9.648 30.904 10.032C30.424 10.416 29.92 10.896 29.392 11.472C28.88 12.032 28.352 12.672 27.808 13.392C27.28 14.096 26.768 14.848 26.272 15.648C27.616 15.536 29.144 15.464 30.856 15.432C30.984 14.76 31.12 14.096 31.264 13.44C31.424 12.768 31.592 12.088 31.768 11.4ZM35.9095 19.776C35.9095 18.864 36.0935 17.984 36.4615 17.136C36.8455 16.272 37.3415 15.512 37.9495 14.856C38.5735 14.184 39.2775 13.648 40.0615 13.248C40.8615 12.832 41.6855 12.624 42.5335 12.624C43.3655 12.624 44.0055 12.832 44.4535 13.248C44.9015 13.664 45.1255 14.256 45.1255 15.024C45.1255 15.392 45.0695 15.752 44.9575 16.104C44.8615 16.44 44.7255 16.744 44.5495 17.016C44.3895 17.288 44.1975 17.512 43.9735 17.688C43.7495 17.848 43.5255 17.928 43.3015 17.928C43.1095 17.928 42.9095 17.872 42.7015 17.76C42.5095 17.632 42.3495 17.472 42.2215 17.28C43.2935 16.304 43.8295 15.416 43.8295 14.616C43.8295 14.152 43.6455 13.92 43.2775 13.92C42.9575 13.92 42.5575 14.072 42.0775 14.376C41.5975 14.68 41.1335 15.08 40.6855 15.576C39.9975 16.344 39.4695 17.2 39.1015 18.144C38.7495 19.072 38.5735 20.048 38.5735 21.072C38.5735 22.368 38.8615 23.144 39.4375 23.4C39.6775 23.368 39.9575 23.296 40.2775 23.184C40.5975 23.072 40.9415 22.928 41.3095 22.752C41.6775 22.56 42.0535 22.344 42.4375 22.104C42.8375 21.864 43.2215 21.608 43.5895 21.336C43.6535 21.384 43.7095 21.456 43.7575 21.552C43.8055 21.648 43.8295 21.736 43.8295 21.816C43.5575 22.152 43.2455 22.48 42.8935 22.8C42.5415 23.12 42.1735 23.416 41.7895 23.688C41.4055 23.944 41.0295 24.16 40.6615 24.336C40.3095 24.528 39.9975 24.648 39.7255 24.696C39.1975 24.648 38.7015 24.48 38.2375 24.192C37.7735 23.92 37.3655 23.56 37.0135 23.112C36.6775 22.664 36.4055 22.152 36.1975 21.576C36.0055 21 35.9095 20.4 35.9095 19.776ZM45.8196 23.592C45.8196 23.032 45.8756 22.376 45.9876 21.624C46.0996 20.856 46.2596 20.04 46.4676 19.176C46.6916 18.312 46.9476 17.408 47.2356 16.464C47.5396 15.52 47.8756 14.576 48.2436 13.632C48.5636 12.784 48.9316 11.928 49.3476 11.064C49.7796 10.2 50.2436 9.352 50.7396 8.52C51.2356 7.688 51.7476 6.896 52.2756 6.144C52.8196 5.392 53.3636 4.704 53.9076 4.08C54.1636 4.08 54.4356 4.112 54.7236 4.176C55.0276 4.24 55.3156 4.328 55.5876 4.44C55.8756 4.536 56.1316 4.656 56.3556 4.8C56.5956 4.944 56.7876 5.088 56.9316 5.232C55.7316 6.464 54.6516 7.712 53.6916 8.976C52.7316 10.224 51.9716 11.4 51.4116 12.504C51.1076 13.112 50.8276 13.68 50.5716 14.208C50.3316 14.736 50.1076 15.264 49.8996 15.792C49.6916 16.304 49.4996 16.824 49.3236 17.352C49.1636 17.864 49.0116 18.408 48.8676 18.984C51.9396 15.064 54.2196 13.104 55.7076 13.104C56.1236 13.104 56.5716 13.24 57.0516 13.512C57.5316 13.784 57.9556 14.152 58.3236 14.616C57.8276 15.16 57.3156 15.816 56.7876 16.584C56.2596 17.352 55.7716 18.128 55.3236 18.912C54.8916 19.68 54.5316 20.4 54.2436 21.072C53.9716 21.728 53.8356 22.216 53.8356 22.536C53.8356 22.696 53.8596 22.808 53.9076 22.872C53.9556 22.92 54.0596 22.944 54.2196 22.944C54.4596 22.944 54.6516 22.912 54.7956 22.848C54.9396 22.784 55.0276 22.752 55.0596 22.752C55.1396 22.88 55.1876 22.968 55.2036 23.016C55.2196 23.064 55.2276 23.104 55.2276 23.136C55.2276 23.2 55.1316 23.296 54.9396 23.424C54.7476 23.536 54.5156 23.656 54.2436 23.784C53.9876 23.896 53.7316 24 53.4756 24.096C53.2196 24.192 53.0276 24.24 52.8996 24.24C52.7396 24.24 52.5796 24.192 52.4196 24.096C52.2596 24.016 52.1156 23.904 51.9876 23.76C51.8756 23.616 51.7796 23.456 51.6996 23.28C51.6356 23.104 51.6036 22.92 51.6036 22.728C51.6036 22.488 51.6676 22.136 51.7956 21.672C51.9396 21.192 52.1316 20.64 52.3716 20.016C52.6116 19.376 52.8996 18.68 53.2356 17.928C53.5716 17.176 53.9316 16.408 54.3156 15.624C54.3156 15.56 54.2836 15.528 54.2196 15.528C54.1716 15.528 54.0436 15.592 53.8356 15.72C53.6436 15.848 53.4596 15.976 53.2836 16.104C52.7076 16.536 52.1236 17.072 51.5316 17.712C50.9556 18.336 50.3876 19.024 49.8276 19.776C49.2836 20.528 48.7636 21.328 48.2676 22.176C47.7876 23.008 47.3716 23.848 47.0196 24.696C46.9716 24.808 46.8996 24.912 46.8036 25.008C46.7076 25.104 46.6276 25.152 46.5636 25.152C46.5156 25.152 46.4436 25.096 46.3476 24.984C46.2676 24.872 46.1876 24.728 46.1076 24.552C46.0436 24.392 45.9796 24.224 45.9156 24.048C45.8516 23.872 45.8196 23.72 45.8196 23.592ZM72.1141 16.632C71.8581 16.648 71.5461 16.816 71.1781 17.136C70.8101 17.44 70.4101 17.84 69.9781 18.336C69.5621 18.816 69.1221 19.352 68.6581 19.944C68.2101 20.536 67.7701 21.128 67.3381 21.72C66.9221 22.296 66.5301 22.84 66.1621 23.352C65.7941 23.864 65.4821 24.272 65.2261 24.576C64.8741 24.432 64.5701 24.224 64.3141 23.952C64.0581 23.664 63.8741 23.312 63.7621 22.896C63.8421 22.4 63.9541 21.888 64.0981 21.36C64.2421 20.816 64.4261 20.256 64.6501 19.68C64.8901 19.104 65.1781 18.504 65.5141 17.88C65.8661 17.24 66.2901 16.568 66.7861 15.864C66.5461 15.88 66.2181 16.056 65.8021 16.392C65.3861 16.712 64.9381 17.136 64.4581 17.664C63.9781 18.176 63.4821 18.76 62.9701 19.416C62.4581 20.056 61.9781 20.688 61.5301 21.312C60.9381 22.144 60.4421 22.872 60.0421 23.496C59.6581 24.12 59.3781 24.488 59.2021 24.6C58.7861 24.296 58.4981 23.968 58.3381 23.616C58.1781 23.264 58.0581 22.872 57.9781 22.44C57.9941 22.056 58.0501 21.576 58.1461 21C58.2581 20.424 58.4101 19.832 58.6021 19.224C58.9701 18.056 59.4421 16.896 60.0181 15.744C60.6101 14.592 61.1781 13.536 61.7221 12.576C62.1701 12.672 62.5701 12.824 62.9221 13.032C63.2901 13.24 63.6741 13.544 64.0741 13.944C63.9141 14.44 63.6661 14.968 63.3301 15.528C62.9941 16.072 62.6421 16.648 62.2741 17.256C61.9061 17.864 61.5701 18.488 61.2661 19.128C60.9621 19.768 60.7621 20.416 60.6661 21.072C61.1141 20.432 61.6421 19.696 62.2501 18.864C62.8741 18.032 63.5061 17.248 64.1461 16.512C64.8021 15.776 65.4501 15.152 66.0901 14.64C66.7301 14.128 67.3061 13.872 67.8181 13.872C68.0101 13.872 68.2181 13.904 68.4421 13.968C68.6661 14.032 68.8741 14.112 69.0661 14.208C69.2581 14.304 69.4181 14.4 69.5461 14.496C69.6741 14.576 69.7461 14.64 69.7621 14.688C69.6821 15.008 69.4901 15.448 69.1861 16.008C68.8981 16.552 68.5861 17.128 68.2501 17.736C67.9141 18.344 67.6021 18.936 67.3141 19.512C67.0261 20.072 66.8581 20.52 66.8101 20.856C67.5941 19.784 68.3301 18.816 69.0181 17.952C69.7061 17.072 70.3541 16.32 70.9621 15.696C71.5701 15.072 72.1301 14.592 72.6421 14.256C73.1701 13.92 73.6661 13.752 74.1301 13.752C74.4501 13.752 74.7461 13.84 75.0181 14.016C75.3061 14.176 75.5061 14.416 75.6181 14.736C75.4741 15.216 75.2341 15.792 74.8981 16.464C74.5781 17.136 74.2501 17.848 73.9141 18.6C73.5781 19.336 73.2741 20.064 73.0021 20.784C72.7461 21.504 72.6181 22.152 72.6181 22.728C72.6181 23.064 72.6661 23.288 72.7621 23.4C72.8581 23.496 72.9941 23.544 73.1701 23.544C73.3621 23.544 73.5381 23.512 73.6981 23.448C73.8741 23.368 74.0021 23.328 74.0821 23.328C74.1781 23.392 74.2341 23.472 74.2501 23.568C74.2661 23.664 74.2741 23.752 74.2741 23.832C73.9541 24.088 73.6261 24.296 73.2901 24.456C72.9541 24.632 72.5781 24.72 72.1621 24.72C71.7781 24.72 71.4581 24.656 71.2021 24.528C70.9621 24.4 70.7621 24.224 70.6021 24C70.4421 23.776 70.3301 23.52 70.2661 23.232C70.2021 22.944 70.1701 22.632 70.1701 22.296C70.1701 21.752 70.2421 21.216 70.3861 20.688C70.5301 20.144 70.6981 19.632 70.8901 19.152C71.0981 18.656 71.3141 18.2 71.5381 17.784C71.7621 17.352 71.9541 16.968 72.1141 16.632ZM84.8736 14.304C85.0336 14.304 85.2176 14.336 85.4256 14.4C85.6496 14.448 85.8496 14.52 86.0256 14.616C86.2016 14.696 86.3456 14.784 86.4576 14.88C86.5856 14.976 86.6496 15.064 86.6496 15.144C86.3296 15.816 86.0336 16.496 85.7616 17.184C85.4896 17.856 85.2576 18.504 85.0656 19.128C84.8736 19.752 84.7216 20.336 84.6096 20.88C84.5136 21.424 84.4656 21.896 84.4656 22.296C84.4656 22.744 84.5136 23.12 84.6096 23.424C84.7056 23.712 84.8656 23.92 85.0896 24.048C84.8976 24.176 84.6496 24.28 84.3456 24.36C84.0416 24.44 83.7696 24.48 83.5296 24.48C82.6656 24.48 82.2336 23.888 82.2336 22.704C82.2336 21.792 82.5376 20.544 83.1456 18.96C82.8256 19.696 82.4576 20.392 82.0416 21.048C81.6256 21.688 81.2016 22.256 80.7696 22.752C80.3376 23.248 79.8976 23.656 79.4496 23.976C79.0176 24.28 78.6176 24.464 78.2496 24.528C77.6576 24.496 77.1776 24.216 76.8096 23.688C76.4416 23.144 76.2576 22.456 76.2576 21.624C76.2576 20.728 76.4496 19.784 76.8336 18.792C77.2176 17.8 77.7056 16.88 78.2976 16.032C78.9056 15.184 79.5616 14.48 80.2656 13.92C80.9696 13.344 81.6496 13.04 82.3056 13.008C82.4656 13.056 82.6416 13.152 82.8336 13.296C83.0416 13.44 83.2336 13.608 83.4096 13.8C83.6016 13.992 83.7616 14.192 83.8896 14.4C84.0176 14.592 84.0896 14.76 84.1056 14.904C83.4656 15 82.8016 15.312 82.1136 15.84C81.4416 16.368 80.8256 17.008 80.2656 17.76C79.7216 18.496 79.2736 19.288 78.9216 20.136C78.5696 20.984 78.3936 21.776 78.3936 22.512C78.3936 22.816 78.5056 23.008 78.7296 23.088C79.1936 22.992 79.7296 22.6 80.3376 21.912C80.9456 21.208 81.6816 20.128 82.5456 18.672C82.7056 18.384 82.8816 18.064 83.0736 17.712C83.2816 17.36 83.4896 16.992 83.6976 16.608C83.9056 16.224 84.1056 15.84 84.2976 15.456C84.5056 15.056 84.6976 14.672 84.8736 14.304ZM93.0053 12.792C93.3253 12.792 93.6933 12.888 94.1093 13.08C94.5253 13.272 94.8933 13.52 95.2133 13.824C95.1333 13.184 95.0293 12.584 94.9013 12.024C94.7893 11.448 94.6133 10.856 94.3733 10.248C94.1493 9.64 93.8453 8.976 93.4613 8.256C93.0773 7.536 92.5973 6.712 92.0213 5.784C92.0693 5.64 92.1733 5.472 92.3333 5.28C92.5093 5.088 92.7013 4.912 92.9093 4.752C93.1333 4.576 93.3573 4.424 93.5813 4.296C93.8213 4.168 94.0453 4.088 94.2533 4.056C94.7013 4.552 95.1253 5.176 95.5253 5.928C95.9253 6.664 96.2773 7.464 96.5813 8.328C96.8853 9.176 97.1173 10.056 97.2773 10.968C97.4533 11.88 97.5413 12.752 97.5413 13.584C97.5413 14.416 97.4453 15.272 97.2533 16.152C97.0773 17.032 96.8213 17.896 96.4853 18.744C96.1653 19.576 95.7893 20.368 95.3573 21.12C94.9253 21.872 94.4533 22.544 93.9413 23.136C93.4453 23.728 92.9253 24.208 92.3813 24.576C91.8373 24.96 91.2933 25.2 90.7493 25.296C89.6453 25.168 88.7973 24.808 88.2053 24.216C87.6293 23.64 87.3413 22.84 87.3413 21.816C87.3413 21.272 87.4213 20.68 87.5813 20.04C87.7573 19.4 87.9813 18.768 88.2533 18.144C88.5413 17.504 88.8693 16.888 89.2373 16.296C89.6213 15.688 90.0213 15.144 90.4373 14.664C90.8693 14.184 91.3013 13.776 91.7333 13.44C92.1653 13.104 92.5893 12.888 93.0053 12.792ZM90.5573 24.336C91.1173 24.144 91.6773 23.72 92.2373 23.064C92.7973 22.408 93.3013 21.64 93.7493 20.76C94.1973 19.864 94.5573 18.912 94.8293 17.904C95.1173 16.88 95.2613 15.896 95.2613 14.952C95.2613 14.68 95.2613 14.512 95.2613 14.448C95.2613 14.384 95.2533 14.32 95.2373 14.256C94.8533 14.416 94.4453 14.688 94.0133 15.072C93.5813 15.456 93.1493 15.904 92.7173 16.416C92.2853 16.912 91.8773 17.456 91.4933 18.048C91.1093 18.64 90.7653 19.232 90.4613 19.824C90.1573 20.416 89.9173 20.984 89.7413 21.528C89.5653 22.072 89.4773 22.552 89.4773 22.968C89.4773 23.768 89.8373 24.224 90.5573 24.336ZM112.155 14.448C112.139 14.752 112.083 15.072 111.987 15.408C111.907 15.728 111.803 16.024 111.675 16.296C111.547 16.552 111.411 16.768 111.267 16.944C111.123 17.12 110.987 17.208 110.859 17.208C110.683 17.192 110.579 17.072 110.547 16.848C110.547 16.8 110.563 16.728 110.595 16.632C110.643 16.52 110.691 16.4 110.739 16.272C110.787 16.144 110.827 16.016 110.859 15.888C110.907 15.76 110.931 15.648 110.931 15.552C110.931 15.328 110.875 15.144 110.763 15C110.667 14.84 110.531 14.76 110.355 14.76C109.715 14.76 109.227 15.16 108.891 15.96C108.555 16.76 108.387 17.936 108.387 19.488C108.387 19.648 108.395 19.744 108.411 19.776C108.747 19.76 109.043 19.752 109.299 19.752C109.571 19.736 109.835 19.728 110.091 19.728C110.107 19.76 110.115 19.824 110.115 19.92C110.115 20.064 110.083 20.168 110.019 20.232C109.651 20.312 109.355 20.384 109.131 20.448C108.923 20.496 108.763 20.544 108.651 20.592C108.539 20.64 108.467 20.696 108.435 20.76C108.419 20.808 108.411 20.88 108.411 20.976C108.411 21.104 108.411 21.232 108.411 21.36C108.427 21.488 108.435 21.648 108.435 21.84C108.435 23.184 108.067 24.264 107.331 25.08C106.611 25.896 105.603 26.368 104.307 26.496C104.083 26.48 103.851 26.416 103.611 26.304C103.371 26.192 103.139 26.048 102.915 25.872C102.707 25.696 102.523 25.496 102.363 25.272C102.203 25.064 102.091 24.848 102.027 24.624C102.027 24.016 102.155 23.44 102.411 22.896C102.667 22.336 103.011 21.848 103.443 21.432C103.891 21 104.411 20.656 105.003 20.4C105.611 20.128 106.267 19.968 106.971 19.92C106.971 19.52 106.931 19.128 106.851 18.744C106.771 18.36 106.683 17.992 106.587 17.64C106.507 17.272 106.427 16.92 106.347 16.584C106.267 16.232 106.227 15.888 106.227 15.552C106.227 15.12 106.315 14.696 106.491 14.28C106.667 13.848 106.899 13.456 107.187 13.104C107.475 12.736 107.811 12.424 108.195 12.168C108.579 11.912 108.979 11.736 109.395 11.64C109.571 11.688 109.803 11.832 110.091 12.072C110.395 12.296 110.691 12.552 110.979 12.84C111.267 13.128 111.523 13.424 111.747 13.728C111.971 14.016 112.107 14.256 112.155 14.448ZM104.235 25.392C104.619 25.232 104.979 25 105.315 24.696C105.667 24.392 105.971 24.048 106.227 23.664C106.483 23.28 106.683 22.872 106.827 22.44C106.987 22.008 107.067 21.584 107.067 21.168C106.747 21.216 106.395 21.368 106.011 21.624C105.627 21.864 105.267 22.16 104.931 22.512C104.595 22.848 104.315 23.2 104.091 23.568C103.867 23.936 103.755 24.256 103.755 24.528C103.755 24.88 103.915 25.168 104.235 25.392ZM118.7 23.472C118.396 23.216 118.188 22.896 118.076 22.512C117.98 22.128 117.932 21.8 117.932 21.528C117.932 21.192 117.972 20.904 118.052 20.664C117.988 20.664 117.844 20.792 117.62 21.048C117.396 21.304 117.148 21.608 116.876 21.96C116.62 22.312 116.364 22.656 116.108 22.992C115.852 23.328 115.66 23.576 115.532 23.736C115.324 23.96 115.124 24.136 114.932 24.264C114.756 24.392 114.612 24.464 114.5 24.48C114.244 24.464 113.972 24.408 113.684 24.312C113.412 24.232 113.148 24.112 112.892 23.952C112.652 23.792 112.436 23.6 112.244 23.376C112.068 23.152 111.948 22.896 111.884 22.608C111.884 22.16 111.892 21.792 111.908 21.504C111.94 21.216 111.996 20.904 112.076 20.568C112.22 19.96 112.428 19.272 112.7 18.504C112.988 17.736 113.316 16.984 113.684 16.248C114.052 15.496 114.46 14.8 114.908 14.16C115.372 13.504 115.86 12.992 116.372 12.624C116.516 12.624 116.684 12.64 116.876 12.672C117.068 12.688 117.26 12.728 117.452 12.792C117.66 12.856 117.852 12.936 118.028 13.032C118.22 13.112 118.38 13.224 118.508 13.368C118.364 13.528 117.996 14.064 117.404 14.976C116.828 15.888 116.18 17.2 115.46 18.912C115.38 19.088 115.284 19.344 115.172 19.68C115.06 20.016 114.948 20.368 114.836 20.736C114.724 21.104 114.628 21.464 114.548 21.816C114.484 22.168 114.452 22.448 114.452 22.656C114.452 22.784 114.468 22.88 114.5 22.944C114.548 23.008 114.588 23.056 114.62 23.088C114.86 22.992 115.164 22.728 115.532 22.296C115.9 21.864 116.412 21.2 117.068 20.304C117.228 20.08 117.412 19.824 117.62 19.536C117.844 19.248 118.068 18.944 118.292 18.624C118.516 18.288 118.724 17.944 118.916 17.592C119.124 17.24 119.292 16.888 119.42 16.536C119.484 16.344 119.564 16.12 119.66 15.864C119.772 15.592 119.9 15.312 120.044 15.024C120.204 14.736 120.38 14.448 120.572 14.16C120.78 13.856 121.02 13.576 121.292 13.32C121.5 13.32 121.724 13.344 121.964 13.392C122.204 13.44 122.428 13.504 122.636 13.584C122.86 13.648 123.052 13.728 123.212 13.824C123.372 13.904 123.492 13.992 123.572 14.088C123.284 14.792 122.964 15.488 122.612 16.176C122.26 16.864 121.932 17.544 121.628 18.216C121.324 18.872 121.068 19.528 120.86 20.184C120.652 20.84 120.548 21.48 120.548 22.104C120.548 22.44 120.572 22.736 120.62 22.992C120.684 23.232 120.748 23.44 120.812 23.616C120.876 23.776 120.932 23.912 120.98 24.024C121.044 24.136 121.076 24.232 121.076 24.312C121.076 24.328 121.06 24.352 121.028 24.384C121.012 24.4 120.996 24.408 120.98 24.408C120.868 24.408 120.724 24.384 120.548 24.336C120.372 24.288 120.172 24.216 119.948 24.12C119.74 24.04 119.524 23.944 119.3 23.832C119.092 23.72 118.892 23.6 118.7 23.472ZM123.455 23.52C123.535 23.056 123.671 22.448 123.863 21.696C124.071 20.928 124.311 20.12 124.583 19.272C124.855 18.408 125.143 17.544 125.447 16.68C125.751 15.816 126.047 15.04 126.335 14.352C126.543 13.856 126.727 13.472 126.887 13.2C127.047 12.912 127.223 12.672 127.415 12.48C127.639 12.512 127.871 12.568 128.111 12.648C128.351 12.728 128.583 12.824 128.807 12.936C129.031 13.048 129.231 13.168 129.407 13.296C129.583 13.408 129.719 13.52 129.815 13.632C129.383 14.144 128.999 14.728 128.663 15.384C128.343 16.04 128.015 16.88 127.679 17.904C128.543 17.136 129.303 16.4 129.959 15.696C130.631 14.992 131.255 14.208 131.831 13.344C131.927 13.264 132.095 13.224 132.335 13.224C132.559 13.224 132.775 13.264 132.983 13.344C133.191 13.408 133.335 13.504 133.415 13.632C133.127 14.4 132.983 15.16 132.983 15.912C132.983 16.616 133.087 17.144 133.295 17.496C133.279 17.592 133.167 17.776 132.959 18.048C132.767 18.32 132.551 18.576 132.311 18.816C131.879 18.592 131.495 18.288 131.159 17.904C130.823 17.504 130.575 17.072 130.415 16.608C129.663 17.136 129.023 17.656 128.495 18.168C127.967 18.664 127.511 19.224 127.127 19.848C126.759 20.456 126.439 21.16 126.167 21.96C125.911 22.76 125.663 23.712 125.423 24.816C125.279 24.8 125.103 24.744 124.895 24.648C124.703 24.568 124.503 24.464 124.295 24.336C124.103 24.208 123.927 24.072 123.767 23.928C123.607 23.784 123.503 23.648 123.455 23.52ZM140.239 23.472C139.935 23.216 139.727 22.896 139.615 22.512C139.519 22.128 139.471 21.8 139.471 21.528C139.471 21.192 139.511 20.904 139.591 20.664C139.527 20.664 139.383 20.792 139.159 21.048C138.935 21.304 138.687 21.608 138.415 21.96C138.159 22.312 137.903 22.656 137.647 22.992C137.391 23.328 137.199 23.576 137.071 23.736C136.863 23.96 136.663 24.136 136.471 24.264C136.295 24.392 136.151 24.464 136.039 24.48C135.783 24.464 135.511 24.408 135.223 24.312C134.951 24.232 134.687 24.112 134.431 23.952C134.191 23.792 133.975 23.6 133.783 23.376C133.607 23.152 133.487 22.896 133.423 22.608C133.423 22.16 133.431 21.792 133.447 21.504C133.479 21.216 133.535 20.904 133.615 20.568C133.759 19.96 133.967 19.272 134.239 18.504C134.527 17.736 134.855 16.984 135.223 16.248C135.591 15.496 135.999 14.8 136.447 14.16C136.911 13.504 137.399 12.992 137.911 12.624C138.055 12.624 138.223 12.64 138.415 12.672C138.607 12.688 138.799 12.728 138.991 12.792C139.199 12.856 139.391 12.936 139.567 13.032C139.759 13.112 139.919 13.224 140.047 13.368C139.903 13.528 139.535 14.064 138.943 14.976C138.367 15.888 137.719 17.2 136.999 18.912C136.919 19.088 136.823 19.344 136.711 19.68C136.599 20.016 136.487 20.368 136.375 20.736C136.263 21.104 136.167 21.464 136.087 21.816C136.023 22.168 135.991 22.448 135.991 22.656C135.991 22.784 136.007 22.88 136.039 22.944C136.087 23.008 136.127 23.056 136.159 23.088C136.399 22.992 136.703 22.728 137.071 22.296C137.439 21.864 137.951 21.2 138.607 20.304C138.767 20.08 138.951 19.824 139.159 19.536C139.383 19.248 139.607 18.944 139.831 18.624C140.055 18.288 140.263 17.944 140.455 17.592C140.663 17.24 140.831 16.888 140.959 16.536C141.023 16.344 141.103 16.12 141.199 15.864C141.311 15.592 141.439 15.312 141.583 15.024C141.743 14.736 141.919 14.448 142.111 14.16C142.319 13.856 142.559 13.576 142.831 13.32C143.039 13.32 143.263 13.344 143.503 13.392C143.743 13.44 143.967 13.504 144.175 13.584C144.399 13.648 144.591 13.728 144.751 13.824C144.911 13.904 145.031 13.992 145.111 14.088C144.823 14.792 144.503 15.488 144.151 16.176C143.799 16.864 143.471 17.544 143.167 18.216C142.863 18.872 142.607 19.528 142.399 20.184C142.191 20.84 142.087 21.48 142.087 22.104C142.087 22.44 142.111 22.736 142.159 22.992C142.223 23.232 142.287 23.44 142.351 23.616C142.415 23.776 142.471 23.912 142.519 24.024C142.583 24.136 142.615 24.232 142.615 24.312C142.615 24.328 142.599 24.352 142.567 24.384C142.551 24.4 142.535 24.408 142.519 24.408C142.407 24.408 142.263 24.384 142.087 24.336C141.911 24.288 141.711 24.216 141.487 24.12C141.279 24.04 141.063 23.944 140.839 23.832C140.631 23.72 140.431 23.6 140.239 23.472ZM144.994 23.52C145.074 23.056 145.21 22.448 145.402 21.696C145.61 20.928 145.85 20.12 146.122 19.272C146.394 18.408 146.682 17.544 146.986 16.68C147.29 15.816 147.586 15.04 147.874 14.352C148.082 13.856 148.266 13.472 148.426 13.2C148.586 12.912 148.762 12.672 148.954 12.48C149.178 12.512 149.41 12.568 149.65 12.648C149.89 12.728 150.122 12.824 150.346 12.936C150.57 13.048 150.77 13.168 150.946 13.296C151.122 13.408 151.258 13.52 151.354 13.632C150.922 14.144 150.538 14.728 150.202 15.384C149.882 16.04 149.554 16.88 149.218 17.904C150.082 17.136 150.842 16.4 151.498 15.696C152.17 14.992 152.794 14.208 153.37 13.344C153.466 13.264 153.634 13.224 153.874 13.224C154.098 13.224 154.314 13.264 154.522 13.344C154.73 13.408 154.874 13.504 154.954 13.632C154.666 14.4 154.522 15.16 154.522 15.912C154.522 16.616 154.626 17.144 154.834 17.496C154.818 17.592 154.706 17.776 154.498 18.048C154.306 18.32 154.09 18.576 153.85 18.816C153.418 18.592 153.034 18.288 152.698 17.904C152.362 17.504 152.114 17.072 151.954 16.608C151.202 17.136 150.562 17.656 150.034 18.168C149.506 18.664 149.05 19.224 148.666 19.848C148.298 20.456 147.978 21.16 147.706 21.96C147.45 22.76 147.202 23.712 146.962 24.816C146.818 24.8 146.642 24.744 146.434 24.648C146.242 24.568 146.042 24.464 145.834 24.336C145.642 24.208 145.466 24.072 145.306 23.928C145.146 23.784 145.042 23.648 144.994 23.52Z" fill="white"/>
</g>
<defs>
<clipPath id="clip0_0_1">
<rect width="172" height="29" fill="white"/>
</clipPath>
</defs>
</svg>
